<?xml version="1.0" encoding="utf-8"?>
<!-- Generator: Adobe Illustrator 23.1.0, SVG Export Plug-In . SVG Version: 6.00 Build 0)  -->
<svg version="1.1" id="Layer_1" xmlns="http://www.w3.org/2000/svg" xmlns:xlink="http://www.w3.org/1999/xlink" x="0px" y="0px"
	 viewBox="0 0 16 13" style="enable-background:new 0 0 16 13;" xml:space="preserve">
<style type="text/css">
	.st0{fill:#2B2B2B;}
</style>
<path class="st0" d="M6.8,4.3c0-0.7-0.2-1.4-0.7-2c-0.4-0.6-1-1-1.7-1.2S3,0.9,2.3,1.2S1.1,1.9,0.7,2.6C0.3,3.2,0.2,3.9,0.2,4.7
	c0.1,0.7,0.4,1.4,0.9,1.9s1.1,0.9,1.9,1c0.7,0.1,1.4,0,2.1-0.3c-0.3,0.7-0.6,1.4-1,2c-0.7,1.1-1.7,1.6-2.7,1.6
	c-0.2,0-0.4,0.1-0.5,0.2s-0.2,0.3-0.2,0.5s0.1,0.4,0.2,0.5c0.1,0.1,0.3,0.2,0.5,0.2c1.6,0,3-0.8,3.9-2.2C6.3,8.7,6.8,6.7,6.8,4.3z"
	/>
<path class="st0" d="M15.3,4.3c0-0.7-0.2-1.4-0.7-2c-0.4-0.6-1-1-1.7-1.2s-1.4-0.2-2.1,0.1S9.6,1.9,9.2,2.6C8.8,3.2,8.7,3.9,8.7,4.7
	C8.8,5.4,9.1,6,9.6,6.6c0.5,0.5,1.1,0.9,1.9,1c0.7,0.1,1.4,0,2-0.4C13.3,8,13,8.7,12.6,9.3c-0.7,1.1-1.7,1.6-2.7,1.6
	c-0.2,0-0.4,0.1-0.5,0.2c-0.1,0.1-0.2,0.3-0.2,0.5s0,0.4,0.2,0.5c0.1,0.1,0.3,0.2,0.5,0.2c1.6,0,3-0.8,3.9-2.2S15.3,6.7,15.3,4.3z"
	/>
</svg>
