<?xml version="1.0" encoding="utf-8"?>
<!-- Generator: Adobe Illustrator 23.1.0, SVG Export Plug-In . SVG Version: 6.00 Build 0)  -->
<svg version="1.1" id="Layer_1" xmlns="http://www.w3.org/2000/svg" xmlns:xlink="http://www.w3.org/1999/xlink" x="0px" y="0px"
	 viewBox="0 0 16 13" style="enable-background:new 0 0 16 13;" xml:space="preserve">
<style type="text/css">
	.st0{fill:#2B2B2B;}
</style>
<path class="st0" d="M8.7,9c0,0.7,0.2,1.4,0.7,2c0.4,0.6,1,1,1.7,1.2c0.7,0.2,1.4,0.2,2.1-0.1c0.7-0.3,1.2-0.7,1.6-1.4
	c0.4-0.6,0.5-1.3,0.5-2.1c-0.1-0.7-0.4-1.4-0.9-1.9c-0.5-0.5-1.1-0.9-1.9-1c-0.7-0.1-1.4,0-2.1,0.3C10.7,5.3,11,4.6,11.4,4
	c0.7-1.1,1.7-1.6,2.7-1.6c0.2,0,0.4-0.1,0.5-0.2c0.1-0.1,0.2-0.3,0.2-0.5s-0.1-0.4-0.2-0.5C14.5,1.1,14.3,1,14.1,1
	c-1.6,0-3,0.8-3.9,2.2C9.2,4.6,8.7,6.6,8.7,9z"/>
<path class="st0" d="M0.2,9c0,0.7,0.2,1.4,0.7,2c0.4,0.6,1,1,1.7,1.2s1.4,0.2,2.1-0.1c0.7-0.3,1.2-0.7,1.6-1.4
	c0.4-0.6,0.5-1.3,0.5-2.1C6.7,7.9,6.4,7.3,5.9,6.7c-0.5-0.5-1.1-0.9-1.9-1C3.3,5.6,2.6,5.7,2,6.1C2.2,5.3,2.5,4.6,2.9,4
	c0.7-1.1,1.7-1.6,2.7-1.6c0.2,0,0.4-0.1,0.5-0.2c0.1-0.1,0.2-0.3,0.2-0.5S6.3,1.3,6.1,1.2C6,1.1,5.8,1,5.6,1c-1.6,0-3,0.8-3.9,2.2
	C0.8,4.6,0.2,6.6,0.2,9z"/>
</svg>
