<?xml version="1.0" encoding="utf-8"?>
<!-- Generator: Adobe Illustrator 23.1.0, SVG Export Plug-In . SVG Version: 6.00 Build 0)  -->
<svg version="1.1" id="Layer_1" xmlns="http://www.w3.org/2000/svg" xmlns:xlink="http://www.w3.org/1999/xlink" x="0px" y="0px"
	 viewBox="0 0 76 76" style="enable-background:new 0 0 76 76;" xml:space="preserve">
<style type="text/css">
	.st0{fill:#2B2B2B;}
	.st1{fill:#FAFAFA;}
</style>
<path class="st0" d="M11.5,11.2C17.6,5,25.7,1.2,34.3,0.3C43-0.5,51.6,1.7,58.8,6.6C66,11.4,71.3,18.7,73.7,27
	c2.4,8.3,1.9,17.3-1.5,25.3c-0.4,0.7-0.5,1.6-0.3,2.4l3.3,15.8c0.1,0.6,0.1,1.2-0.1,1.8c-0.2,0.6-0.5,1.1-0.9,1.6
	c-0.4,0.4-0.8,0.6-1.3,0.8c-0.5,0.2-1,0.3-1.5,0.3h-0.7l-16-3.2c-0.8-0.1-1.6,0-2.4,0.3c-8,3.4-16.9,4-25.2,1.5
	c-8.3-2.4-15.6-7.7-20.4-14.9c-4.9-7.2-7.1-15.9-6.2-24.6c0.8-8.7,4.7-16.8,10.8-22.9L11.5,11.2z"/>
<path class="st1" d="M38.3,32.7c0,0.8,0.3,1.5,0.7,2.1c0.5,0.6,1.1,1,1.8,1.3c0.7,0.2,1.5,0.2,2.2-0.1c0.7-0.3,1.3-0.8,1.7-1.4
	c0.4-0.7,0.6-1.4,0.5-2.2c-0.1-0.8-0.4-1.5-0.9-2c-0.5-0.6-1.2-0.9-2-1.1s-1.5,0-2.2,0.4c0.2-0.9,0.6-1.6,1-2.2
	c0.8-1.2,1.8-1.7,2.9-1.7c0.2,0,0.4-0.1,0.5-0.2c0.1-0.1,0.2-0.3,0.2-0.5s-0.1-0.4-0.2-0.5c-0.1-0.1-0.3-0.2-0.5-0.2
	c-1.7,0-3.1,0.9-4.2,2.4C38.8,28,38.3,30.1,38.3,32.7z"/>
<path class="st1" d="M29.3,32.7c0,0.8,0.3,1.5,0.7,2.1c0.5,0.6,1.1,1,1.8,1.3c0.7,0.2,1.5,0.2,2.2-0.1c0.7-0.3,1.3-0.8,1.7-1.4
	c0.4-0.7,0.6-1.4,0.5-2.2c-0.1-0.8-0.4-1.5-0.9-2c-0.5-0.6-1.2-0.9-2-1.1s-1.5,0-2.2,0.4c0.2-0.9,0.6-1.6,1-2.2
	c0.8-1.2,1.8-1.7,2.9-1.7c0.2,0,0.4-0.1,0.5-0.2c0.1-0.1,0.2-0.3,0.2-0.5s-0.1-0.4-0.2-0.5c-0.1-0.1-0.3-0.2-0.5-0.2
	c-1.7,0-3.1,0.9-4.2,2.4C29.8,28,29.3,30.1,29.3,32.7z"/>
</svg>
