<?xml version="1.0" encoding="utf-8"?>
<!-- Generator: Adobe Illustrator 23.1.0, SVG Export Plug-In . SVG Version: 6.00 Build 0)  -->
<svg version="1.1" id="Layer_1" xmlns="http://www.w3.org/2000/svg" xmlns:xlink="http://www.w3.org/1999/xlink" x="0px" y="0px"
	 viewBox="0 0 95 91" style="enable-background:new 0 0 95 91;" xml:space="preserve">
<style type="text/css">
	.st0{fill:#2B2B2B;}
	.st1{fill:#FAFAFA;}
</style>
<path class="st0" d="M79.7,29.3c0.6-1.6,0.9-3.3,0.9-5.1c0-7.8-6.3-14.1-14.1-14.1c-2.9,0-5.6,0.9-7.8,2.4
	C54.7,5.4,47.1,0.7,38.4,0.7c-13,0-23.5,10.5-23.5,23.6c0,0.4,0,0.8,0,1.2c-8.2,2.9-14.1,10.8-14.1,20c0,11.7,9.5,21.2,21.2,21.2H76
	c10.4,0,18.8-8.4,18.8-18.9C94.8,38.7,88.3,31.1,79.7,29.3z"/>
<path class="st1" d="M47.8,38.2c0,0.8,0.3,1.5,0.7,2.1c0.5,0.6,1.1,1,1.8,1.3c0.7,0.2,1.5,0.2,2.2-0.1c0.7-0.3,1.3-0.8,1.7-1.4
	c0.4-0.7,0.6-1.4,0.5-2.2c-0.1-0.8-0.4-1.5-0.9-2c-0.5-0.6-1.2-0.9-2-1.1s-1.5,0-2.2,0.4c0.2-0.9,0.6-1.6,1-2.2
	c0.8-1.2,1.8-1.7,2.9-1.7c0.2,0,0.4-0.1,0.5-0.2c0.1-0.1,0.2-0.3,0.2-0.5S54.2,30,54,29.9c-0.1-0.1-0.3-0.2-0.5-0.2
	c-1.7,0-3.1,0.9-4.2,2.4C48.3,33.5,47.8,35.6,47.8,38.2z"/>
<path class="st1" d="M38.8,38.2c0,0.8,0.3,1.5,0.7,2.1c0.5,0.6,1.1,1,1.8,1.3c0.7,0.2,1.5,0.2,2.2-0.1c0.7-0.3,1.3-0.8,1.7-1.4
	c0.4-0.7,0.6-1.4,0.5-2.2c-0.1-0.8-0.4-1.5-0.9-2c-0.5-0.6-1.2-0.9-2-1.1s-1.5,0-2.2,0.4c0.2-0.9,0.6-1.6,1-2.2
	c0.8-1.2,1.8-1.7,2.9-1.7c0.2,0,0.4-0.1,0.5-0.2c0.1-0.1,0.2-0.3,0.2-0.5S45.2,30,45,29.9c-0.1-0.1-0.3-0.2-0.5-0.2
	c-1.7,0-3.1,0.9-4.2,2.4C39.3,33.5,38.8,35.6,38.8,38.2z"/>
<circle class="st0" cx="73.8" cy="78.7" r="5"/>
<circle class="st0" cx="79.3" cy="88.2" r="2.5"/>
</svg>
